<mxfile host="app.diagrams.net" modified="2021-05-10T21:27:55.283Z" agent="5.0 (Macintosh; Intel Mac OS X 10_15_6) AppleWebKit/537.36 (KHTML, like Gecko) Chrome/90.0.4430.93 Safari/537.36" etag="O0sMq2dLwh-tZcVKP257" version="14.6.11" type="github">
  <diagram id="C5RBs43oDa-KdzZeNtuy" name="Page-1">
    <mxGraphModel dx="1367" dy="803" grid="1" gridSize="10" guides="1" tooltips="1" connect="1" arrows="1" fold="1" page="1" pageScale="1" pageWidth="827" pageHeight="1169" math="0" shadow="0">
      <root>
        <mxCell id="WIyWlLk6GJQsqaUBKTNV-0" />
        <mxCell id="WIyWlLk6GJQsqaUBKTNV-1" parent="WIyWlLk6GJQsqaUBKTNV-0" />
        <mxCell id="2_5G1RBdNr4jpk5tRKrd-11" value="AFH HUB&lt;br&gt;&lt;span id=&quot;docs-internal-guid-4b5474ac-7fff-267b-f1c0-4c2fcc6487ea&quot;&gt;&lt;span style=&quot;font-family: &amp;#34;arial&amp;#34; ; background-color: transparent ; vertical-align: baseline&quot;&gt;&lt;font style=&quot;font-size: 11px&quot;&gt;Anti-fragilityhealth.com&lt;/font&gt;&lt;/span&gt;&lt;/span&gt;" style="rounded=1;whiteSpace=wrap;html=1;" vertex="1" parent="WIyWlLk6GJQsqaUBKTNV-1">
          <mxGeometry x="300" y="30" width="160" height="70" as="geometry" />
        </mxCell>
        <mxCell id="2_5G1RBdNr4jpk5tRKrd-12" value="Home" style="rounded=1;whiteSpace=wrap;html=1;" vertex="1" parent="WIyWlLk6GJQsqaUBKTNV-1">
          <mxGeometry x="10" y="150" width="120" height="60" as="geometry" />
        </mxCell>
        <mxCell id="2_5G1RBdNr4jpk5tRKrd-13" value="Service" style="rounded=1;whiteSpace=wrap;html=1;" vertex="1" parent="WIyWlLk6GJQsqaUBKTNV-1">
          <mxGeometry x="170" y="150" width="120" height="60" as="geometry" />
        </mxCell>
        <mxCell id="2_5G1RBdNr4jpk5tRKrd-14" value="" style="endArrow=none;html=1;exitX=0.183;exitY=1.017;exitDx=0;exitDy=0;exitPerimeter=0;" edge="1" parent="WIyWlLk6GJQsqaUBKTNV-1" source="2_5G1RBdNr4jpk5tRKrd-13">
          <mxGeometry width="50" height="50" relative="1" as="geometry">
            <mxPoint x="390" y="330" as="sourcePoint" />
            <mxPoint x="192" y="560" as="targetPoint" />
          </mxGeometry>
        </mxCell>
        <mxCell id="2_5G1RBdNr4jpk5tRKrd-16" value="IV&lt;br&gt;&lt;span id=&quot;docs-internal-guid-74093519-7fff-6f13-1623-3f1fcdc550e6&quot;&gt;&lt;a href=&quot;http://advanced-infusion-clinic.com&quot;&gt;&lt;span style=&quot;font-size: 10.5pt ; font-family: &amp;#34;roboto&amp;#34; , sans-serif ; color: rgb(17 , 85 , 204) ; background-color: rgb(255 , 255 , 255) ; vertical-align: baseline&quot;&gt;Advanced-infusion-clinic.com&lt;/span&gt;&lt;/a&gt;&lt;/span&gt;" style="rounded=1;whiteSpace=wrap;html=1;" vertex="1" parent="WIyWlLk6GJQsqaUBKTNV-1">
          <mxGeometry x="210" y="250" width="120" height="60" as="geometry" />
        </mxCell>
        <mxCell id="2_5G1RBdNr4jpk5tRKrd-19" value="ATS&amp;nbsp;&lt;br&gt;&lt;span id=&quot;docs-internal-guid-89b53afa-7fff-94f8-546f-cf0940425132&quot;&gt;&lt;a href=&quot;http://advancedtestingservice.com&quot;&gt;&lt;span style=&quot;font-size: 10.5pt ; font-family: &amp;#34;roboto&amp;#34; , sans-serif ; color: rgb(17 , 85 , 204) ; background-color: rgb(255 , 255 , 255) ; vertical-align: baseline&quot;&gt;Advanced&lt;br&gt;testingservice.com&lt;/span&gt;&lt;/a&gt;&lt;/span&gt;" style="rounded=1;whiteSpace=wrap;html=1;" vertex="1" parent="WIyWlLk6GJQsqaUBKTNV-1">
          <mxGeometry x="210" y="330" width="120" height="60" as="geometry" />
        </mxCell>
        <mxCell id="2_5G1RBdNr4jpk5tRKrd-20" value="Beauty Service" style="rounded=1;whiteSpace=wrap;html=1;" vertex="1" parent="WIyWlLk6GJQsqaUBKTNV-1">
          <mxGeometry x="210" y="410" width="120" height="60" as="geometry" />
        </mxCell>
        <mxCell id="2_5G1RBdNr4jpk5tRKrd-22" value="Hair Restoration&lt;br&gt;&lt;span id=&quot;docs-internal-guid-0307a542-7fff-520b-4e99-ed72c797a7f6&quot;&gt;&lt;a href=&quot;https://domains.google.com/registrar/restore-my-hair.com?utm_medium=cpc&amp;amp;utm_source=google&amp;amp;authuser=2&amp;amp;_ga=2.260055556.84802020.1619455763-1324031469.1603987089&quot;&gt;&lt;span style=&quot;font-size: 10.5pt ; font-family: &amp;#34;roboto&amp;#34; , sans-serif ; background-color: rgb(255 , 255 , 255) ; vertical-align: baseline&quot;&gt;&lt;font color=&quot;#3333ff&quot;&gt;restore-my-hair.com&lt;/font&gt;&lt;/span&gt;&lt;/a&gt;&lt;/span&gt;" style="rounded=1;whiteSpace=wrap;html=1;" vertex="1" parent="WIyWlLk6GJQsqaUBKTNV-1">
          <mxGeometry x="210" y="490" width="120" height="60" as="geometry" />
        </mxCell>
        <mxCell id="2_5G1RBdNr4jpk5tRKrd-26" style="edgeStyle=orthogonalEdgeStyle;rounded=0;orthogonalLoop=1;jettySize=auto;html=1;exitX=0.25;exitY=0;exitDx=0;exitDy=0;entryX=0.5;entryY=0;entryDx=0;entryDy=0;" edge="1" parent="WIyWlLk6GJQsqaUBKTNV-1" source="2_5G1RBdNr4jpk5tRKrd-19" target="2_5G1RBdNr4jpk5tRKrd-19">
          <mxGeometry relative="1" as="geometry" />
        </mxCell>
      </root>
    </mxGraphModel>
  </diagram>
</mxfile>
